<?xml version="1.0" encoding="UTF-8" standalone="no"?>
<!-- Created with Inkscape (http://www.inkscape.org/) -->

<svg
   version="1.1"
   id="svg119"
   width="1800"
   height="929"
   viewBox="0 0 1800 929"
   sodipodi:docname="belo.svg"
   inkscape:version="1.2 (dc2aeda, 2022-05-15)"
   xmlns:inkscape="http://www.inkscape.org/namespaces/inkscape"
   xmlns:sodipodi="http://sodipodi.sourceforge.net/DTD/sodipodi-0.dtd"
   xmlns="http://www.w3.org/2000/svg"
   xmlns:svg="http://www.w3.org/2000/svg">
  <defs
     id="defs123" />
  <sodipodi:namedview
     id="namedview121"
     pagecolor="#ffffff"
     bordercolor="#000000"
     borderopacity="0.25"
     inkscape:showpageshadow="2"
     inkscape:pageopacity="0.0"
     inkscape:pagecheckerboard="0"
     inkscape:deskcolor="#d1d1d1"
     showgrid="false"
     inkscape:zoom="0.12403577"
     inkscape:cx="1056.1469"
     inkscape:cy="-620.78865"
     inkscape:window-width="1309"
     inkscape:window-height="456"
     inkscape:window-x="0"
     inkscape:window-y="25"
     inkscape:window-maximized="0"
     inkscape:current-layer="g125" />
  <g
     inkscape:groupmode="layer"
     inkscape:label="Image"
     id="g125">
    <g
       id="g349"
       transform="matrix(0.93213829,0,0,0.93213829,54.232806,26.786521)">
      <path
         style="fill:#ffffff;fill-opacity:1;stroke:none;stroke-width:15;stroke-linecap:round;stroke-linejoin:round;stroke-dasharray:none;stroke-opacity:1;paint-order:normal"
         d="m 538.15583,684.39383 204.7332,46.79616 245.67983,-17.54856 368.51974,-14.6238 125.7647,-26.32284 20.4733,5.84952 64.3447,-32.17236 -17.5485,-81.89328 -58.3714,-42.95608 -196.801,-14.76007 -273.5533,7.87204 -309.96157,-4.92003 -50.18425,-24.60012 -126.93663,1.96801 -1.96801,68.88034 z"
         id="path16218" />
      <path
         style="fill:#ffffff;fill-opacity:1;stroke:none;stroke-width:15;stroke-linecap:round;stroke-linejoin:round;stroke-dasharray:none;stroke-opacity:1;paint-order:normal"
         d="m 140.38848,292.476 143.31324,-108.21612 251.52935,8.77428 330.49788,5.84952 301.25025,11.69904 V 371.44451 L 927.14891,421.16543 625.89863,406.54163 383.14355,418.24067 184.25988,383.14355 Z"
         id="path16108"
         inkscape:label="path16108" />
      <path
         style="display:inline;fill:#e9c46a;fill-opacity:1;stroke:#ffffff;stroke-width:15;stroke-linecap:round;stroke-linejoin:round;stroke-dasharray:none;stroke-opacity:1;paint-order:normal"
         d="m 1194,848.53518 c 0,-74.63852 -0.046,-76.4896 -1.9389,-77.50249 -1.3349,-0.71439 -187.3325,-0.95902 -597.00003,-0.78519 L -6.1814276e-6,770.5 -5.8054035e-5,617 -1.0992664e-4,463.5 134.36864,463.76068 c 116.59689,0.2262 134.52847,0.0682 135.57638,-1.19443 0.96627,-1.16429 0.84262,-1.75767 -0.61869,-2.96892 C 266.0836,456.90952 81.89877,334.67154 69.75,327.14448 63.2875,323.14049 58,319.5245 58,319.10896 c 0,-0.41554 9.7875,-7.44261 21.75,-15.61571 11.9625,-8.1731 26.7,-18.30269 32.75,-22.5102 6.05,-4.20751 24.05,-16.58354 40,-27.50229 15.95,-10.91875 41.825,-28.68242 57.5,-39.47482 15.675,-10.79241 37.05,-25.48666 47.5,-32.6539 10.45,-7.16724 49.15,-33.73973 86,-59.04998 C 380.35,96.991809 416.00891,72.507152 422.74201,67.891711 460.80147,41.80254 495.79795,17.709936 505,11.26289 L 515.5,3.9064893 516,80.98999 c 0.43499,67.06126 0.69503,77.20693 2,78.03279 0.94355,0.59713 239.01067,0.86173 641.75,0.71325 L 1800,159.5 l -2e-4,153 -2e-4,153 -179.5397,-0.081 c -183.3744,-0.0828 -185.5605,-0.0419 -181.9599,3.40319 0.8806,0.84258 31.4261,20.88721 108.5,71.20007 50.4847,32.95581 105.5487,69.16064 106.2924,69.8878 0.4358,0.42612 -21.8189,16.25819 -49.4549,35.18238 -27.636,18.92418 -60.7343,41.6076 -73.5517,50.4076 -12.8174,8.8 -42.9877,29.47906 -67.0451,45.95347 -44.6805,30.59704 -100.5745,68.94152 -194.7407,133.5964 C 1197.3423,923.90697 1195.7297,925 1194.8052,925 1194.3623,925 1194,890.59083 1194,848.53518 Z M 754.10929,699.3771 c 5.66439,-1.77498 11.65781,-6.77543 15.70378,-13.10201 C 772.98354,681.31749 831,551.55705 831,549.42352 831,547.49706 828.45872,547 818.60934,547 c -5.83924,0 -9.82998,0.45895 -10.86912,1.25 -1.4166,1.07838 -8.74576,17.7141 -30.19899,68.54566 -2.622,6.21261 -5.20079,11.15115 -5.73065,10.97453 -0.84522,-0.28174 -8.67833,-17.94049 -28.5091,-64.27019 -3.06046,-7.15 -6.26268,-13.80147 -7.11605,-14.78104 -1.34374,-1.54246 -3.03246,-1.74339 -12.60654,-1.5 -9.64656,0.24524 -11.09811,0.5063 -11.39374,2.04919 -0.18633,0.97248 10.27078,25.18945 23.23803,53.8155 12.96725,28.62604 23.57682,52.95889 23.57682,54.073 0,3.60952 -8.99836,19.70573 -12.3545,22.09967 -2.73806,1.95305 -4.48776,2.25958 -13.50783,2.36641 -7.60561,0.0901 -10.5944,0.48913 -11.23469,1.5 -1.1443,1.80662 -1.12744,13.97429 0.0219,15.78994 1.89463,2.99302 23.13688,3.29955 32.18443,0.46443 z M 913.67421,657.23292 C 938.76783,649.20186 953.28627,628.9846 953.33812,602 c 0.0223,-11.59266 -1.43736,-18.21781 -6.15665,-27.94451 -8.38094,-17.27357 -24.84878,-27.68786 -47.49542,-30.0362 -22.9967,-2.38463 -42.53691,3.53323 -55.6874,16.86523 -3.58897,3.63852 -7.76672,8.94444 -9.28388,11.79096 -6.30175,11.82342 -8.46381,30.58657 -5.10011,44.26063 5.37336,21.84365 20.58336,36.28003 43.88534,41.65322 8.81279,2.03213 32.03645,1.24803 40.17421,-1.35641 z m -34.42354,-17.71034 c -18.88849,-5.32992 -28.35934,-19.68311 -26.99346,-40.90893 1.51675,-23.57007 16.74462,-36.67067 41.14189,-35.39453 11.72283,0.61318 19.54911,3.87994 26.11691,10.90145 5.45022,5.82673 8.12723,11.69697 9.56755,20.98004 2.95406,19.03937 -6.23734,37.07024 -21.88193,42.92601 -7.48524,2.80172 -20.79839,3.51425 -27.95096,1.49596 z m 145.51853,18.96978 c 8.0523,-1.89852 15.3044,-5.59727 20.668,-10.54125 2.3412,-2.15808 4.5507,-3.62992 4.9098,-3.27077 0.3592,0.35914 0.653,2.83913 0.653,5.51108 0,4.19771 0.3238,4.98119 2.3821,5.76376 2.7624,1.05025 16.5579,0.81799 18.3821,-0.30948 1.7654,-1.09103 1.8002,-105.68132 0.036,-107.4457 -1.3257,-1.32574 -17.4976,-1.67981 -19.4682,-0.42624 -0.8431,0.53637 -1.2607,10.33981 -1.5007,35.23469 -0.323,33.51048 -0.3979,34.63377 -2.6311,39.49155 -3.1048,6.75338 -8.2685,11.80883 -15.272,14.95181 -13.1802,5.91493 -32.8955,3.67404 -40.63027,-4.61814 C 987.18541,627.35296 987,625.73503 987,586.60355 c 0,-31.81275 -0.20032,-36.66102 -1.57143,-38.03212 -2.1416,-2.1416 -18.60566,-2.2679 -20.35824,-0.15617 -0.86828,1.04621 -1.09578,12.06324 -0.87244,42.25 0.2876,38.874 0.40338,41.08116 2.41118,45.9667 1.15999,2.82258 3.33807,6.74325 4.84018,8.71262 4.7882,6.27765 15.89564,12.34834 25.55075,13.96457 6.0519,1.01306 21.9972,0.54405 27.7692,-0.81679 z m 204.3528,0.0693 c 9.2608,-1.96296 18.349,-6.84233 24.5231,-13.16631 6.205,-6.35553 13.5534,-20.3075 13.7348,-26.07765 L 1267.5,615.5 h -10.94 -10.94 l -2.2642,5.84562 c -1.2454,3.21509 -3.4251,7.36755 -4.8439,9.2277 -10.186,13.35451 -37.8557,13.71295 -50.9597,0.66016 -9.0965,-9.06091 -12.6978,-25.50561 -9.0109,-41.14685 4.0972,-17.38209 14.2711,-25.81387 32.3942,-26.84721 16.7799,-0.95674 29.7933,5.86335 32.6113,17.09098 1.0757,4.28599 2.5276,4.76169 13.5992,4.45573 L 1267.5,584.5 l 0.324,-2.82806 c 0.1975,-1.7247 -1.0645,-5.75172 -3.2348,-10.32178 -8.6072,-18.12428 -26.3136,-27.50164 -52.0892,-27.58653 -28.656,-0.0944 -48.1204,12.93932 -56.1199,37.57898 -2.2388,6.89593 -2.6585,10.01308 -2.7138,20.15739 -0.047,8.57109 0.4406,13.83448 1.7055,18.42004 5.5384,20.07676 20.245,34.2983 39.8787,38.56337 8.2524,1.79269 25.5941,1.83275 33.8715,0.0782 z m 114.6702,-0.12177 c 8.2706,-1.67403 18.666,-6.02654 23.8655,-9.99235 3.7243,-2.84071 5.3423,-3.09739 5.3423,-0.84753 0,2.73018 6.3574,8.14918 11.0604,9.42785 5.0955,1.38537 20.4912,0.58922 22.6099,-1.16922 1.7566,-1.45781 1.8221,-13.42191 0.08,-14.54961 -0.6875,-0.44496 -3.3466,-0.81476 -5.9091,-0.82178 -3.1536,-0.009 -5.3348,-0.62421 -6.75,-1.90499 -2.0399,-1.84607 -2.0909,-2.68894 -2.0909,-34.55574 0,-38.15808 -0.3652,-40.44437 -7.6197,-47.69886 -8.8871,-8.88712 -21.8124,-12.56401 -43.8803,-12.48274 -15.7076,0.0578 -25.8848,2.06263 -34.6281,6.82131 -9.7183,5.28938 -17.0862,16.5246 -17.2693,26.33378 l -0.1026,5.5 8.8489,0.29038 c 9.749,0.31991 11.0893,-0.23126 12.0326,-4.94811 1.1264,-5.63199 4.4209,-9.59797 10.4203,-12.54404 5.4959,-2.69887 6.2486,-2.79823 21.1982,-2.79823 13.8211,0 16.0116,0.23635 20.2233,2.18197 5.8635,2.70867 8.7678,7.12676 8.773,13.34552 0.01,9.12796 -3.8725,10.89954 -29.4963,13.46778 -34.206,3.42842 -47.2931,8.4415 -54.0451,20.70228 -2.612,4.74287 -2.922,6.25223 -2.9375,14.30245 -0.015,7.89163 0.3338,9.71513 2.834,14.80688 4.5472,9.26048 15.6044,16.32918 28.1486,17.99506 7.4891,0.99455 22.2684,0.5596 29.2922,-0.86206 z m -25.9213,-18.00455 c -3.0613,-0.9426 -5.8939,-2.82527 -8.3632,-5.55853 -3.5517,-3.93121 -3.7117,-4.40384 -3.2747,-9.67297 0.8634,-10.41093 5.9537,-12.74414 36.4743,-16.71826 10.6539,-1.38726 21.1285,-3.12789 23.2769,-3.86807 4.9171,-1.6941 5.4013,-0.78303 4.4419,8.35861 -1.2179,11.60503 -5.7748,18.12649 -16.4439,23.53289 -10.2625,5.20044 -26.3077,6.945 -36.1113,3.92633 z M 572.23469,654.6427 c 1.18711,-1.84638 0.92767,-103.4708 -0.26987,-105.70843 -0.90911,-1.69867 -2.16361,-1.93426 -10.3,-1.93426 -5.87264,0 -9.70418,0.43936 -10.46482,1.2 -0.90299,0.90299 -1.19621,14.0826 -1.18469,53.25 0.008,28.6275 0.34592,52.54503 0.75,53.15006 0.40408,0.60503 1.40969,1.37988 2.23469,1.72188 2.37793,0.98579 18.42178,-0.41489 19.23469,-1.67925 z m 47.2684,1.51524 L 622.5,655.35675 623,610.42838 623.5,565.5 638,565 l 14.5,-0.5 0.28997,-8.22092 c 0.34646,-9.82237 1.48382,-9.17651 -16.78997,-9.53432 L 623.5,546.5 l -0.31082,-6 c -0.72474,-13.99028 0.83987,-15.44856 17.55201,-16.35924 L 652.5,523.5 v -8.47232 -8.47233 l -4.5,-0.83096 c -2.475,-0.45703 -9.675,-0.6643 -16,-0.4606 -15.78731,0.50843 -22.64968,3.59227 -28.30353,12.71915 -1.83721,2.96577 -2.25849,5.47642 -2.6876,16.01706 L 600.5,546.5 592,546.75078 c -13.79475,0.40699 -13.12919,-0.0888 -12.78997,9.5283 L 579.5,564.5 l 9.44588,0.29012 c 5.19523,0.15956 10.03273,0.77716 10.75,1.37244 1.03593,0.85975 1.30412,10.11231 1.30412,44.99211 v 43.90978 l 2.14289,0.79271 c 2.95354,1.09258 12.72625,1.27224 16.3602,0.30077 z M 1436,656.10662 l 2.5,-0.69403 0.5902,-34.45629 c 0.6231,-36.37626 0.7918,-37.71281 5.7056,-45.19523 2.8473,-4.33576 9.8191,-9.24826 15.645,-11.02391 2.2326,-0.68044 8.8165,-1.23716 14.631,-1.23716 9.7624,0 11.0256,0.22969 16.5,3 5.0796,2.57057 6.3218,3.77717 8.6782,8.42931 l 2.75,5.42932 0.015,36.57068 c 0.01,20.2461 0.4219,37.21334 0.9263,38.01036 1.332,2.10526 19.753,2.13802 21.1231,0.0376 1.4727,-2.25774 0.65,-81.51579 -0.8943,-86.15454 -1.8341,-5.50902 -7.1406,-12.85426 -11.8881,-16.45549 -12.0993,-9.17792 -36.9371,-11.5839 -53.9342,-5.22449 -3.0327,1.1347 -8.3693,4.22421 -11.859,6.86557 -3.4898,2.64137 -6.6024,4.54506 -6.9171,4.23044 -0.3146,-0.31463 -0.572,-2.69891 -0.572,-5.2984 0,-3.38732 -0.4481,-4.89831 -1.5818,-5.33333 -2.3195,-0.89008 -17.7056,-0.71131 -19.1771,0.22281 -0.9914,0.62943 -1.2038,12.14892 -1,54.23469 L 1417.5,655.5 l 4,0.60809 c 5.4729,0.83201 11.4998,0.8314 14.5,-10e-4 z M 571.8,530.8 c 0.76887,-0.76887 1.2,-4.69524 1.2,-10.92857 C 573,507.41958 572.63695,507 561.86283,507 550.04351,507 550,507.04524 550,519.33518 c 0,6.65042 0.42254,10.68736 1.2,11.46482 0.75751,0.75751 4.55556,1.2 10.3,1.2 5.74444,0 9.54249,-0.44249 10.3,-1.2 z M 258.66203,366.51315 c 19.64854,-3.72729 33.04899,-15.81823 39.76377,-35.878 2.33044,-6.96196 1.4602,-7.63872 -9.79824,-7.61984 -5.02016,0.008 -9.61535,0.34592 -10.21154,0.75 -0.59619,0.40408 -2.71983,4.1582 -4.71919,8.3425 -5.87957,12.30485 -12.78707,16.19962 -28.69683,16.18062 -12.39613,-0.0148 -19.44334,-2.55696 -26.13609,-9.42815 -6.53828,-6.7126 -9.06764,-13.65063 -9.63206,-26.42066 -0.87485,-19.79368 5.75116,-33.22741 19.15038,-38.82596 15.17154,-6.33908 36.23847,-2.63186 43.72392,7.69425 1.51821,2.09435 3.05199,5.1356 3.4084,6.75832 0.90739,4.13132 3.07012,4.93377 13.29726,4.93377 11.39503,0 11.89535,-0.49981 9.20843,-9.19904 -3.5472,-11.48449 -11.27018,-19.9577 -23.51739,-25.80192 -29.66197,-14.15433 -66.52186,-5.37815 -80.92689,19.26833 -13.60771,23.2823 -10.25259,57.056 7.42404,74.73263 13.21332,13.21332 35.26103,18.76258 57.66203,14.51315 z m 110.41913,0.0358 c 12.10948,-2.3172 19.34514,-5.38257 28.60718,-12.11933 2.11216,-1.53628 2.26057,-1.45009 4.26346,2.47588 3.18018,6.23369 7.72867,8.0945 19.78586,8.0945 12.8182,0 14.26234,-0.89679 14.26234,-8.8567 0,-3.15882 -0.54,-6.2833 -1.2,-6.9433 -0.66,-0.66 -3.55286,-1.2 -6.42857,-1.2 -3.17981,0 -5.78418,-0.55561 -6.64652,-1.41794 -1.14641,-1.14642 -1.52389,-8.01716 -1.97122,-35.87925 -0.50351,-31.36153 -0.72996,-34.86074 -2.51757,-38.90193 -6.03453,-13.64205 -21.84,-20.1461 -48.73612,-20.05523 -26.28441,0.0888 -41.19509,6.71895 -48.45608,21.54632 -3.63454,7.42193 -5.04378,15.46145 -2.94336,16.79134 2.20161,1.39396 16.48994,1.12408 17.64667,-0.33331 0.54567,-0.6875 1.50254,-2.83712 2.12638,-4.77692 3.13132,-9.73674 11.7644,-14.63475 27.50875,-15.6072 21.5479,-1.3309 33.7663,4.45038 34.02582,16.09972 0.20714,9.29796 -4.1693,11.34316 -29.90818,13.97673 -29.60483,3.02913 -41.6879,6.70194 -49.91392,15.172 -10.23637,10.54005 -9.82973,29.36205 0.8907,41.22829 9.13619,10.11267 29.61182,14.53202 49.60438,10.70634 z m -23.32682,-18.14761 c -2.69749,-0.8295 -6.25809,-2.97177 -8.25,-4.96368 C 334.31198,340.24531 334,339.42195 334,334.18917 c 0,-6.78108 1.50985,-9.3883 7.08343,-12.23173 4.78461,-2.44093 9.14847,-3.30348 30.17628,-5.9646 8.93216,-1.13039 18.36768,-2.74902 20.96782,-3.59695 2.60014,-0.84793 5.24373,-1.22267 5.87463,-0.83275 1.94358,1.20119 0.49902,13.44396 -2.31034,19.5804 -2.62725,5.73868 -7.10681,9.97661 -14.51034,13.72765 -9.60259,4.86521 -25.91477,6.48607 -35.52714,3.53016 z m 155.11742,18.66711 c 2.40446,-0.46444 4.76007,-1.45735 5.23468,-2.20645 1.05626,-1.66715 1.14952,-13.91148 0.11831,-15.5326 -0.5033,-0.7912 -4.14442,-1.1153 -11.23469,-1 -11.5969,0.18859 -15.49292,-0.98427 -17.70327,-5.32941 -0.96909,-1.90505 -1.21404,-10.47233 -1.02927,-36 L 476.5,273.5 490.78915,273 c 16.3331,-0.57152 16.18022,-0.48648 16.18022,-9 0,-8.51352 0.15288,-8.42848 -16.18022,-9 L 476.5,254.5 476,239 475.5,223.5 H 465 454.5 L 454,239 453.5,254.5 444,255 c -5.225,0.275 -10.0625,0.86406 -10.75,1.30902 -1.73571,1.12337 -1.69055,14.08047 0.0541,15.52842 0.71727,0.59528 5.55477,1.21288 10.75,1.37244 L 453.5,273.5 454,312 c 0.55969,43.09599 0.48127,42.60076 7.79045,49.19619 2.29275,2.06886 5.99232,4.18388 8.40288,4.80387 2.36867,0.60922 4.75667,1.27291 5.30667,1.47486 1.97757,0.72614 21.09363,0.41989 25.37176,-0.40646 z M 586.5,364.95918 c 14.48824,-4.51673 23.2025,-12.24318 30.16154,-26.74259 2.74448,-5.71822 4.34299,-10.34254 4.15088,-12.00803 L 620.5,323.5 H 610 599.5 l -3.5,7.21741 c -1.925,3.96958 -4.7904,8.54943 -6.36757,10.17744 -8.39147,8.66201 -28.25844,10.38226 -41.63288,3.60492 -5.54492,-2.80982 -11.52504,-9.17282 -14.10735,-15.01057 -4.70716,-10.6413 -4.71451,-28.73921 -0.0161,-39.70006 6.92959,-16.16607 26.43357,-23.34088 46.91532,-17.25845 6.43203,1.91011 11.90177,6.82222 15.64301,14.04824 L 599.5,292.5 l 8.5,0.29505 c 14.1835,0.49234 14.86424,-0.20638 10.6984,-10.98113 -3.13188,-8.1005 -7.70338,-14.08556 -14.68383,-19.22428 -7.57483,-5.57627 -14.312,-8.12579 -27.07279,-10.24507 -25.68896,-4.26634 -50.49318,5.59838 -61.69387,24.53586 -5.28765,8.94007 -7.44515,16.82723 -7.99562,29.22967 -0.90741,20.44437 3.69861,34.05882 15.50997,45.84428 11.72463,11.69893 25.33323,16.33751 45.73774,15.59002 7.54063,-0.27624 13.20142,-1.08926 18,-2.58522 z m 513.6846,1.53775 c 11.1019,-2.28106 22.9121,-8.52078 30.2791,-15.99742 6.69,-6.78949 12.2709,-16.14271 11.2381,-18.83414 C 1141.1669,330.27146 1139.4968,330 1131.456,330 h -9.6068 l -6.6746,6.85426 c -8.81,9.04717 -14.6682,11.42508 -28.1746,11.43658 -8.1258,0.007 -10.4968,-0.39872 -16.3911,-2.8042 -8.8432,-3.60895 -16.5448,-11.02676 -19.4159,-18.70035 -3.8893,-10.39519 -9.4074,-9.21113 45.807,-9.8292 26.675,-0.29861 48.6805,-0.63611 48.9011,-0.75 0.2205,-0.1139 0.13,-4.6562 -0.2013,-10.094 -0.9979,-16.38034 -6.404,-29.00539 -16.8121,-39.26222 -17.4105,-17.15737 -48.2189,-20.46946 -74.8371,-8.04542 -6.8128,3.1799 -18.461,14.58325 -22.3395,21.87003 -8.938,16.7922 -8.7541,41.2067 0.4403,58.45727 3.7437,7.02383 11.8482,15.61063 18.3056,19.3949 14.0007,8.205 33.4278,11.31835 49.7276,7.96928 z m -49.8374,-69.03464 c -1.0449,-2.72295 2.7108,-10.3885 7.497,-15.30176 18.0925,-18.57281 51.6396,-14.30026 61.5766,7.84241 1.5104,3.36565 2.4978,6.76685 2.1941,7.55822 C 1121.1491,298.77509 1115.5821,299 1086,299 c -30.6265,0 -35.1374,-0.19455 -35.6528,-1.53771 z m -394.71612,65.7724 c 0.78834,-0.51207 1.28104,-11.03719 1.62598,-34.73469 0.56418,-38.75988 0.90084,-40.71054 8.30391,-48.1136 8.22799,-8.22799 19.58749,-11.41027 33.30681,-9.33065 8.5417,1.29478 13.35126,3.40612 17.3186,7.60267 5.11056,5.4058 5.2193,6.28645 5.78426,46.84158 l 0.52936,38 9.35072,0.28886 c 6.03498,0.18643 9.84689,-0.12294 10.75,-0.87245 1.15315,-0.95703 1.39928,-7.70372 1.39928,-38.3552 0,-22.5591 -0.42867,-39.5128 -1.08946,-43.08734 -2.95909,-16.00716 -13.8381,-25.6659 -32.6959,-29.02848 -10.10508,-1.80186 -14.38015,-1.77473 -23.85768,0.15137 -9.59209,1.94939 -18.48705,6.23927 -23.9712,11.56088 -3.4081,3.30709 -4.22336,3.70795 -4.75,2.33554 C 657.28609,265.58197 657,254.08906 657,240.9534 657,213.17934 657.79711,215 645.63717,215 c -5.47968,0 -7.91675,0.42243 -9.06574,1.57143 -1.39936,1.39936 -1.57143,9.42554 -1.57143,73.3 0,54.45555 0.28897,72.01754 1.2,72.92857 1.3204,1.3204 17.50991,1.68257 19.43108,0.43469 z m 195.52883,-2.73141 c 0.4395,-1.6482 0.7587,-16.9482 0.70933,-34 -0.0837,-28.90781 0.0479,-31.36211 1.94688,-36.31236 4.13856,-10.78839 10.84358,-16.18503 23.34844,-18.79237 15.21964,-3.17339 26.82329,1.92989 30.69734,13.50067 0.76658,2.28959 1.1381,15.1237 1.1381,39.31574 0,22.84582 0.37672,36.62044 1.03518,37.85078 0.9111,1.70241 2.16547,1.93426 10.46482,1.93426 8.29935,0 9.55372,-0.23185 10.46482,-1.93426 C 931.62082,360.83998 932,347.53615 932,325.74506 v -34.38643 l 2.75,-5.37917 c 5.14922,-10.07218 15.26017,-15.18044 30.3409,-15.32884 7.32249,-0.072 9.31437,0.28777 13.49085,2.43707 2.94216,1.51408 6.10227,4.23145 7.9091,6.801 l 3.00915,4.2794 0.5,38.66596 c 0.275,21.26627 0.86406,39.22845 1.30902,39.91595 0.55276,0.85406 3.78832,1.25 10.21478,1.25 8.2758,0 9.5302,-0.23238 10.441,-1.93426 1.4278,-2.6679 1.3829,-71.80039 -0.052,-79.63208 -1.5984,-8.72588 -6.34,-16.94551 -12.36725,-21.43909 -7.223,-5.38502 -10.14345,-6.65726 -19.88468,-8.66239 -8.22688,-1.69342 -9.16007,-1.69734 -18.6477,-0.0784 -11.70326,1.99708 -20.00492,5.78735 -26.99357,12.32442 -2.59997,2.43196 -5.13054,4.41519 -5.6235,4.40717 -0.49297,-0.008 -3.26295,-2.43541 -6.15551,-5.3942 -6.08353,-6.22282 -11.76309,-9.17495 -21.6769,-11.26726 -14.8577,-3.13572 -33.18333,1.75345 -44.02296,11.74507 l -4.29123,3.95553 -0.45703,-5.51112 c -0.25136,-3.03112 -0.79504,-5.84915 -1.20818,-6.26228 -0.41314,-0.41314 -5.00507,-0.75116 -10.2043,-0.75116 -7.3147,0 -9.66764,0.33932 -10.40135,1.5 -0.5652,0.8941 -0.9544,22.17287 -0.96353,52.67857 -0.0137,45.69336 0.15698,51.35086 1.59222,52.7861 1.28845,1.28845 3.40842,1.55075 10.68041,1.32143 l 9.07287,-0.2861 0.7991,-2.99672 z"
         id="path353" />
      <path
         style="display:inline;fill:#e76f51;fill-opacity:1;stroke:#ffffff;stroke-width:15;stroke-linecap:round;stroke-linejoin:round;stroke-dasharray:none;stroke-opacity:1"
         d="m 1194,848.53518 c 0,-74.63852 -0.046,-76.4896 -1.9389,-77.50249 -1.3349,-0.71439 -187.3325,-0.95902 -597.00003,-0.78519 L -6.1814276e-6,770.5 1.4859741e-5,617 3.590091e-5,463.5 136.23266,463.73228 c 74.92794,0.12776 136.76397,0.43618 137.41339,0.68539 0.64943,0.24921 13.70724,8.73389 29.01736,18.85485 15.31013,10.12096 32.56159,21.47436 38.33659,25.22977 5.775,3.75541 20.175,13.20416 32,20.99721 35.67779,23.51282 62.39758,41.11226 84,55.32804 62.93531,41.41547 58.76011,38.81235 60.10106,37.4714 0.49513,-0.49513 0.99947,-34.63254 1.14264,-77.34264 L 518.5,468.5 855,468 l 336.5,-0.5 0.631,-4.5 c 0.3471,-2.475 0.5503,-37.575 0.4515,-78 -0.099,-40.425 0.017,-74.32378 0.2567,-75.33062 0.262,-1.09947 1.0802,-1.65914 2.0485,-1.40128 0.8868,0.23613 11.0623,6.63925 22.6123,14.22915 11.55,7.58991 26.175,17.18771 32.5,21.32845 6.325,4.14075 20.725,13.59802 32,21.01615 11.275,7.41814 26.35,17.31393 33.5,21.99065 7.15,4.67672 26.275,17.25002 42.5,27.94068 16.225,10.69065 38.2126,25.12764 48.8614,32.08218 10.6488,6.95455 22.1238,14.7364 25.5,17.29299 7.6639,5.80333 38.0021,25.8042 169.6386,111.83632 27.225,17.79313 50.0854,32.87705 50.8009,33.51983 1.0261,0.92188 -9.3123,8.43621 -48.9549,35.58209 -27.6407,18.92738 -60.7428,41.61341 -73.5602,50.41341 -12.8174,8.8 -42.9877,29.47906 -67.0451,45.95347 -44.6805,30.59704 -100.5745,68.94152 -194.7407,133.5964 C 1197.3423,923.90697 1195.7297,925 1194.8052,925 1194.3623,925 1194,890.59083 1194,848.53518 Z M 754.10929,699.3771 c 5.66439,-1.77498 11.65781,-6.77543 15.70378,-13.10201 C 772.98354,681.31749 831,551.55705 831,549.42352 831,547.49706 828.45872,547 818.60934,547 c -5.83924,0 -9.82998,0.45895 -10.86912,1.25 -1.4166,1.07838 -8.74576,17.7141 -30.19899,68.54566 -2.622,6.21261 -5.20079,11.15115 -5.73065,10.97453 -0.84522,-0.28174 -8.67833,-17.94049 -28.5091,-64.27019 -3.06046,-7.15 -6.26268,-13.80147 -7.11605,-14.78104 -1.34374,-1.54246 -3.03246,-1.74339 -12.60654,-1.5 -9.64656,0.24524 -11.09811,0.5063 -11.39374,2.04919 -0.18633,0.97248 10.27078,25.18945 23.23803,53.8155 12.96725,28.62604 23.57682,52.95889 23.57682,54.073 0,3.60952 -8.99836,19.70573 -12.3545,22.09967 -2.73806,1.95305 -4.48776,2.25958 -13.50783,2.36641 -7.60561,0.0901 -10.5944,0.48913 -11.23469,1.5 -1.1443,1.80662 -1.12744,13.97429 0.0219,15.78994 1.89463,2.99302 23.13688,3.29955 32.18443,0.46443 z M 913.67421,657.23292 C 938.76783,649.20186 953.28627,628.9846 953.33812,602 c 0.0223,-11.59266 -1.43736,-18.21781 -6.15665,-27.94451 -8.38094,-17.27357 -24.84878,-27.68786 -47.49542,-30.0362 -22.9967,-2.38463 -42.53691,3.53323 -55.6874,16.86523 -3.58897,3.63852 -7.76672,8.94444 -9.28388,11.79096 -6.30175,11.82342 -8.46381,30.58657 -5.10011,44.26063 5.37336,21.84365 20.58336,36.28003 43.88534,41.65322 8.81279,2.03213 32.03645,1.24803 40.17421,-1.35641 z m -34.42354,-17.71034 c -18.88849,-5.32992 -28.35934,-19.68311 -26.99346,-40.90893 1.51675,-23.57007 16.74462,-36.67067 41.14189,-35.39453 11.72283,0.61318 19.54911,3.87994 26.11691,10.90145 5.45022,5.82673 8.12723,11.69697 9.56755,20.98004 2.95406,19.03937 -6.23734,37.07024 -21.88193,42.92601 -7.48524,2.80172 -20.79839,3.51425 -27.95096,1.49596 z m 145.51853,18.96978 c 8.0523,-1.89852 15.3044,-5.59727 20.668,-10.54125 2.3412,-2.15808 4.5507,-3.62992 4.9098,-3.27077 0.3592,0.35914 0.653,2.83913 0.653,5.51108 0,4.19771 0.3238,4.98119 2.3821,5.76376 2.7624,1.05025 16.5579,0.81799 18.3821,-0.30948 1.7654,-1.09103 1.8002,-105.68132 0.036,-107.4457 -1.3257,-1.32574 -17.4976,-1.67981 -19.4682,-0.42624 -0.8431,0.53637 -1.2607,10.33981 -1.5007,35.23469 -0.323,33.51048 -0.3979,34.63377 -2.6311,39.49155 -3.1048,6.75338 -8.2685,11.80883 -15.272,14.95181 -13.1802,5.91493 -32.8955,3.67404 -40.63027,-4.61814 C 987.18541,627.35296 987,625.73503 987,586.60355 c 0,-31.81275 -0.20032,-36.66102 -1.57143,-38.03212 -2.1416,-2.1416 -18.60566,-2.2679 -20.35824,-0.15617 -0.86828,1.04621 -1.09578,12.06324 -0.87244,42.25 0.2876,38.874 0.40338,41.08116 2.41118,45.9667 1.15999,2.82258 3.33807,6.74325 4.84018,8.71262 4.7882,6.27765 15.89564,12.34834 25.55075,13.96457 6.0519,1.01306 21.9972,0.54405 27.7692,-0.81679 z m 204.3528,0.0693 c 9.2608,-1.96296 18.349,-6.84233 24.5231,-13.16631 6.205,-6.35553 13.5534,-20.3075 13.7348,-26.07765 L 1267.5,615.5 h -10.94 -10.94 l -2.2642,5.84562 c -1.2454,3.21509 -3.4251,7.36755 -4.8439,9.2277 -10.186,13.35451 -37.8557,13.71295 -50.9597,0.66016 -9.0965,-9.06091 -12.6978,-25.50561 -9.0109,-41.14685 4.0972,-17.38209 14.2711,-25.81387 32.3942,-26.84721 16.7799,-0.95674 29.7933,5.86335 32.6113,17.09098 1.0757,4.28599 2.5276,4.76169 13.5992,4.45573 L 1267.5,584.5 l 0.324,-2.82806 c 0.1975,-1.7247 -1.0645,-5.75172 -3.2348,-10.32178 -8.6072,-18.12428 -26.3136,-27.50164 -52.0892,-27.58653 -28.656,-0.0944 -48.1204,12.93932 -56.1199,37.57898 -2.2388,6.89593 -2.6585,10.01308 -2.7138,20.15739 -0.047,8.57109 0.4406,13.83448 1.7055,18.42004 5.5384,20.07676 20.245,34.2983 39.8787,38.56337 8.2524,1.79269 25.5941,1.83275 33.8715,0.0782 z m 114.6702,-0.12177 c 8.2706,-1.67403 18.666,-6.02654 23.8655,-9.99235 3.7243,-2.84071 5.3423,-3.09739 5.3423,-0.84753 0,2.73018 6.3574,8.14918 11.0604,9.42785 5.0955,1.38537 20.4912,0.58922 22.6099,-1.16922 1.7566,-1.45781 1.8221,-13.42191 0.08,-14.54961 -0.6875,-0.44496 -3.3466,-0.81476 -5.9091,-0.82178 -3.1536,-0.009 -5.3348,-0.62421 -6.75,-1.90499 -2.0399,-1.84607 -2.0909,-2.68894 -2.0909,-34.55574 0,-38.15808 -0.3652,-40.44437 -7.6197,-47.69886 -8.8871,-8.88712 -21.8124,-12.56401 -43.8803,-12.48274 -15.7076,0.0578 -25.8848,2.06263 -34.6281,6.82131 -9.7183,5.28938 -17.0862,16.5246 -17.2693,26.33378 l -0.1026,5.5 8.8489,0.29038 c 9.749,0.31991 11.0893,-0.23126 12.0326,-4.94811 1.1264,-5.63199 4.4209,-9.59797 10.4203,-12.54404 5.4959,-2.69887 6.2486,-2.79823 21.1982,-2.79823 13.8211,0 16.0116,0.23635 20.2233,2.18197 5.8635,2.70867 8.7678,7.12676 8.773,13.34552 0.01,9.12796 -3.8725,10.89954 -29.4963,13.46778 -34.206,3.42842 -47.2931,8.4415 -54.0451,20.70228 -2.612,4.74287 -2.922,6.25223 -2.9375,14.30245 -0.015,7.89163 0.3338,9.71513 2.834,14.80688 4.5472,9.26048 15.6044,16.32918 28.1486,17.99506 7.4891,0.99455 22.2684,0.5596 29.2922,-0.86206 z m -25.9213,-18.00455 c -3.0613,-0.9426 -5.8939,-2.82527 -8.3632,-5.55853 -3.5517,-3.93121 -3.7117,-4.40384 -3.2747,-9.67297 0.8634,-10.41093 5.9537,-12.74414 36.4743,-16.71826 10.6539,-1.38726 21.1285,-3.12789 23.2769,-3.86807 4.9171,-1.6941 5.4013,-0.78303 4.4419,8.35861 -1.2179,11.60503 -5.7748,18.12649 -16.4439,23.53289 -10.2625,5.20044 -26.3077,6.945 -36.1113,3.92633 z M 572.23469,654.6427 c 1.18711,-1.84638 0.92767,-103.4708 -0.26987,-105.70843 -0.90911,-1.69867 -2.16361,-1.93426 -10.3,-1.93426 -5.87264,0 -9.70418,0.43936 -10.46482,1.2 -0.90299,0.90299 -1.19621,14.0826 -1.18469,53.25 0.008,28.6275 0.34592,52.54503 0.75,53.15006 0.40408,0.60503 1.40969,1.37988 2.23469,1.72188 2.37793,0.98579 18.42178,-0.41489 19.23469,-1.67925 z m 47.2684,1.51524 L 622.5,655.35675 623,610.42838 623.5,565.5 638,565 l 14.5,-0.5 0.28997,-8.22092 c 0.34646,-9.82237 1.48382,-9.17651 -16.78997,-9.53432 L 623.5,546.5 l -0.31082,-6 c -0.72474,-13.99028 0.83987,-15.44856 17.55201,-16.35924 L 652.5,523.5 v -8.47232 -8.47233 l -4.5,-0.83096 c -2.475,-0.45703 -9.675,-0.6643 -16,-0.4606 -15.78731,0.50843 -22.64968,3.59227 -28.30353,12.71915 -1.83721,2.96577 -2.25849,5.47642 -2.6876,16.01706 L 600.5,546.5 592,546.75078 c -13.79475,0.40699 -13.12919,-0.0888 -12.78997,9.5283 L 579.5,564.5 l 9.44588,0.29012 c 5.19523,0.15956 10.03273,0.77716 10.75,1.37244 1.03593,0.85975 1.30412,10.11231 1.30412,44.99211 v 43.90978 l 2.14289,0.79271 c 2.95354,1.09258 12.72625,1.27224 16.3602,0.30077 z M 1436,656.10662 l 2.5,-0.69403 0.5902,-34.45629 c 0.6231,-36.37626 0.7918,-37.71281 5.7056,-45.19523 2.8473,-4.33576 9.8191,-9.24826 15.645,-11.02391 2.2326,-0.68044 8.8165,-1.23716 14.631,-1.23716 9.7624,0 11.0256,0.22969 16.5,3 5.0796,2.57057 6.3218,3.77717 8.6782,8.42931 l 2.75,5.42932 0.015,36.57068 c 0.01,20.2461 0.4219,37.21334 0.9263,38.01036 1.332,2.10526 19.753,2.13802 21.1231,0.0376 1.4727,-2.25774 0.65,-81.51579 -0.8943,-86.15454 -1.8341,-5.50902 -7.1406,-12.85426 -11.8881,-16.45549 -12.0993,-9.17792 -36.9371,-11.5839 -53.9342,-5.22449 -3.0327,1.1347 -8.3693,4.22421 -11.859,6.86557 -3.4898,2.64137 -6.6024,4.54506 -6.9171,4.23044 -0.3146,-0.31463 -0.572,-2.69891 -0.572,-5.2984 0,-3.38732 -0.4481,-4.89831 -1.5818,-5.33333 -2.3195,-0.89008 -17.7056,-0.71131 -19.1771,0.22281 -0.9914,0.62943 -1.2038,12.14892 -1,54.23469 L 1417.5,655.5 l 4,0.60809 c 5.4729,0.83201 11.4998,0.8314 14.5,-10e-4 z M 571.8,530.8 c 0.76887,-0.76887 1.2,-4.69524 1.2,-10.92857 C 573,507.41958 572.63695,507 561.86283,507 550.04351,507 550,507.04524 550,519.33518 c 0,6.65042 0.42254,10.68736 1.2,11.46482 0.75751,0.75751 4.55556,1.2 10.3,1.2 5.74444,0 9.54249,-0.44249 10.3,-1.2 z"
         id="path351" />
    </g>
  </g>
</svg>
